# xmcd CD database file
#
# Track frame offsets:
#	150
#	12675
#	29775
#	37767
#	49709
#	67724
#	78249
#	91622
#
# Disc length: 1419 seconds
#
# Revision: 0
# Processed by: cddbd v1.5.1PL2 Copyright (c) Steve Scherf et al.
# Submitted via: CDex 1.51
#
DISCID=54058908
DTITLE=Eskorbuto - Mucha Policía, Poca Diversión Y Otros Éxitos
DYEAR=2001
DGENRE=Euskal Herriko Punk
TTITLE0=Mucha Policía, Poca Diversión
TTITLE1=Cuidado!
TTITLE2=Antes De Las Guerras
TTITLE3=De Tí Depende
TTITLE4=Ya No Quedan Más Cojones
TTITLE5=Es Un Crimen
TTITLE6=Ratas De Bizkaia
TTITLE7=Historia Triste
EXTD=YEAR: 2001
EXTT0=
EXTT1=
EXTT2=
EXTT3=
EXTT4=
EXTT5=
EXTT6=
EXTT7=
PLAYORDER=
